<svg xmlns="http://www.w3.org/2000/svg" xmlns:xlink="http://www.w3.org/1999/xlink" width="500" zoomAndPan="magnify" viewBox="0 0 375 374.999991" height="500" preserveAspectRatio="xMidYMid meet" version="1.0"><defs><g/></defs><g fill="#0a0a0a" fill-opacity="1"><g transform="translate(37.500002, 279.371157)"><g><path d="M 51.65625 -77.796875 L 51.65625 0 L 15.09375 0 L 15.09375 -135.453125 L 49.9375 -135.453125 L 50.421875 -101.34375 L 47.359375 -101.34375 C 51.035156 -112.800781 56.578125 -121.675781 63.984375 -127.96875 C 71.390625 -134.269531 80.898438 -137.421875 92.515625 -137.421875 C 101.921875 -137.421875 110.140625 -135.375 117.171875 -131.28125 C 124.203125 -127.195312 129.640625 -121.304688 133.484375 -113.609375 C 137.335938 -105.921875 139.265625 -96.679688 139.265625 -85.890625 L 139.265625 0 L 102.703125 0 L 102.703125 -79.390625 C 102.703125 -87.972656 100.53125 -94.65625 96.1875 -99.4375 C 91.851562 -104.226562 85.800781 -106.625 78.03125 -106.625 C 72.882812 -106.625 68.328125 -105.5 64.359375 -103.25 C 60.390625 -101 57.28125 -97.742188 55.03125 -93.484375 C 52.78125 -89.234375 51.65625 -84.003906 51.65625 -77.796875 Z M 51.65625 -77.796875 "/></g></g><g transform="translate(191.855297, 279.371157)"><g><path d="M 14.96875 -135.453125 L 51.65625 -135.453125 L 51.65625 7.859375 C 51.738281 17.910156 49.816406 26.125 45.890625 32.5 C 41.960938 38.882812 36.296875 43.609375 28.890625 46.671875 C 21.492188 49.742188 12.640625 51.28125 2.328125 51.28125 L -6.75 51.28125 L -6.75 22.328125 L -1.109375 22.328125 C 4.785156 22.328125 8.9375 21.035156 11.34375 18.453125 C 13.757812 15.878906 14.96875 11.9375 14.96875 6.625 Z M 33.375 -153 C 27.738281 -153 22.9375 -154.835938 18.96875 -158.515625 C 15 -162.203125 13.015625 -166.703125 13.015625 -172.015625 C 13.015625 -177.335938 15 -181.835938 18.96875 -185.515625 C 22.9375 -189.191406 27.738281 -191.03125 33.375 -191.03125 C 39.019531 -191.03125 43.804688 -189.191406 47.734375 -185.515625 C 51.660156 -181.835938 53.625 -177.335938 53.625 -172.015625 C 53.625 -166.703125 51.660156 -162.203125 47.734375 -158.515625 C 43.804688 -154.835938 39.019531 -153 33.375 -153 Z M 33.375 -153 "/></g></g></g><g fill="#00f2ff" fill-opacity="1"><g transform="translate(258.609363, 279.371157)"><g><path d="M 39.515625 2.328125 C 33.535156 2.328125 28.5 0.304688 24.40625 -3.734375 C 20.320312 -7.785156 18.28125 -12.796875 18.28125 -18.765625 C 18.28125 -24.660156 20.320312 -29.628906 24.40625 -33.671875 C 28.5 -37.722656 33.535156 -39.75 39.515625 -39.75 C 45.398438 -39.75 50.382812 -37.722656 54.46875 -33.671875 C 58.5625 -29.628906 60.609375 -24.660156 60.609375 -18.765625 C 60.609375 -12.796875 58.5625 -7.785156 54.46875 -3.734375 C 50.382812 0.304688 45.398438 2.328125 39.515625 2.328125 Z M 39.515625 2.328125 "/></g></g></g></svg>